<?xml version="1.0" standalone="no"?>
<!DOCTYPE svg PUBLIC "-//W3C//DTD SVG 20010904//EN"
 "http://www.w3.org/TR/2001/REC-SVG-20010904/DTD/svg10.dtd">
<svg version="1.0" xmlns="http://www.w3.org/2000/svg"
 width="2000.000000pt" height="2000.000000pt" viewBox="0 0 2000.000000 2000.000000"
 preserveAspectRatio="xMidYMid meet">
<metadata>
Created by potrace 1.14, written by Peter Selinger 2001-2017
</metadata>
<g transform="translate(0.000000,2000.000000) scale(0.100000,-0.100000)"
fill="#000000" stroke="none">
<path d="M6623 17800 c-17 -10 -37 -29 -44 -41 -24 -46 -3 -256 41 -399 6 -19
17 -69 25 -110 7 -41 25 -129 38 -195 47 -233 62 -405 62 -720 -1 -247 -4
-311 -23 -430 -19 -126 -29 -171 -76 -340 -33 -118 -107 -248 -215 -375 -30
-36 -56 -66 -57 -68 -5 -8 -567 192 -670 239 -38 17 -118 54 -179 81 -181 83
-693 346 -950 488 -132 73 -262 145 -290 160 -27 14 -61 33 -75 42 -14 8 -115
69 -225 133 -239 141 -302 180 -550 343 -271 178 -327 214 -495 314 -176 105
-259 149 -510 273 -70 35 -225 85 -262 85 -75 0 -138 -64 -138 -141 0 -74 30
-147 121 -295 82 -133 119 -195 119 -200 0 -3 26 -53 59 -112 78 -142 126
-233 201 -377 34 -66 77 -147 95 -180 29 -52 79 -149 221 -425 19 -36 38 -72
43 -80 4 -8 40 -78 79 -155 38 -77 115 -229 171 -337 239 -466 367 -728 401
-818 9 -25 26 -65 38 -90 11 -25 37 -97 58 -160 32 -99 37 -129 38 -216 1 -94
-1 -103 -26 -142 -53 -80 -196 -165 -309 -183 -70 -11 -263 -1 -470 26 -63 9
-166 22 -229 30 -63 8 -169 22 -235 31 -69 10 -190 17 -283 18 l-164 1 -30
-34 c-28 -31 -30 -38 -25 -88 4 -39 15 -69 40 -106 40 -60 61 -79 174 -162 86
-64 117 -83 283 -180 417 -243 750 -491 750 -560 0 -23 -101 -128 -160 -168
-146 -96 -356 -210 -780 -422 -562 -282 -610 -321 -633 -510 -21 -171 10 -224
190 -317 172 -89 372 -168 733 -287 219 -73 292 -102 455 -185 169 -85 202
-105 400 -235 114 -74 136 -91 283 -217 187 -159 285 -289 352 -464 11 -30 25
-64 30 -75 13 -30 47 -189 60 -290 22 -157 -6 -340 -65 -425 -37 -54 -341
-354 -506 -499 -46 -41 -88 -80 -94 -86 -11 -12 -226 -202 -350 -309 -78 -68
-146 -128 -369 -331 -340 -308 -460 -463 -460 -590 0 -63 36 -131 84 -159 34
-20 49 -21 390 -20 195 0 425 6 510 12 85 6 234 16 330 22 536 34 798 51 905
61 66 6 215 12 330 13 181 1 216 -1 257 -17 100 -39 129 -116 103 -277 -15
-95 -34 -183 -55 -255 -5 -16 -15 -55 -23 -85 -31 -118 -148 -487 -191 -600
-13 -36 -38 -101 -54 -145 -17 -44 -42 -102 -55 -130 -13 -27 -28 -61 -32 -73
-8 -27 -41 -84 -126 -217 -59 -94 -129 -229 -129 -250 0 -7 -7 -26 -15 -41
-24 -48 -37 -132 -33 -224 3 -97 18 -130 74 -162 27 -15 34 -15 119 7 101 25
235 74 370 133 185 81 466 202 470 202 3 0 29 11 59 25 30 14 59 25 64 25 5 0
43 13 83 30 41 16 107 36 147 45 157 33 180 19 206 -125 23 -128 51 -218 92
-300 39 -78 121 -215 165 -275 122 -167 186 -253 197 -265 53 -62 198 -280
267 -400 160 -280 252 -541 274 -775 6 -60 18 -135 26 -165 9 -30 25 -91 36
-135 11 -44 31 -118 45 -165 14 -47 39 -130 56 -185 141 -468 270 -777 423
-1010 65 -99 238 -279 295 -307 120 -58 125 -59 299 -70 323 -20 431 11 588
169 121 121 249 295 390 528 35 58 153 274 153 280 0 2 18 42 40 89 22 47 40
90 40 96 0 5 4 18 9 28 5 9 36 71 67 137 68 140 159 285 237 377 124 146 185
271 173 355 -17 125 -113 222 -356 356 -191 105 -286 245 -309 455 -12 108
-45 175 -136 273 -61 65 -75 87 -96 150 -23 72 -24 82 -24 389 0 353 6 398 59
454 60 64 250 84 366 40 66 -26 132 -76 251 -190 127 -121 210 -168 327 -184
40 -6 86 -17 102 -25 27 -14 110 -117 110 -137 0 -4 9 -27 19 -51 11 -23 31
-91 46 -152 14 -60 30 -126 35 -145 5 -19 12 -62 15 -95 8 -78 20 -130 56
-241 37 -115 51 -128 123 -122 45 4 63 11 101 42 61 50 104 134 105 201 0 44
19 105 35 111 38 15 135 -64 385 -315 200 -200 260 -272 312 -372 32 -62 33
-67 32 -184 -1 -114 -3 -126 -42 -238 -52 -147 -77 -196 -145 -286 -61 -81
-231 -258 -357 -371 -46 -41 -93 -84 -105 -95 -11 -11 -72 -64 -135 -117 -514
-434 -662 -563 -849 -743 -122 -118 -362 -361 -428 -435 -23 -25 -57 -63 -78
-85 -20 -22 -62 -71 -93 -110 -31 -38 -67 -81 -80 -95 -27 -29 -195 -252 -266
-353 l-48 -67 355 0 355 0 46 63 c97 138 388 407 791 735 143 116 517 404 619
477 16 11 40 29 55 41 49 38 333 231 438 297 86 54 199 186 327 384 36 56 66
105 66 108 0 3 11 23 24 44 104 164 271 523 317 681 11 36 24 79 29 96 6 17
10 56 10 87 0 54 -2 57 -32 73 -18 10 -39 24 -46 33 -21 26 -68 130 -97 216
-68 205 -178 355 -405 556 -121 107 -320 310 -422 431 -83 98 -140 172 -287
373 -17 22 -33 49 -37 60 -5 11 -16 28 -25 38 -9 10 -48 79 -86 153 l-68 135
-3 123 c-4 142 6 208 45 302 30 71 98 156 144 179 48 25 104 19 162 -18 97
-63 342 -266 556 -462 30 -28 107 -97 170 -155 130 -118 242 -223 411 -386
117 -112 281 -268 330 -314 15 -14 69 -65 121 -115 52 -49 142 -133 199 -185
58 -52 132 -120 165 -151 33 -31 75 -69 94 -85 19 -16 57 -50 85 -75 52 -47
232 -200 301 -254 20 -16 61 -45 90 -63 47 -30 59 -33 135 -34 83 -1 84 -1
112 32 30 37 44 98 35 163 -11 80 -39 215 -66 307 -9 34 -20 73 -82 305 -16
61 -36 142 -43 180 -8 39 -21 97 -30 130 -8 33 -29 121 -46 195 -18 74 -36
149 -41 165 -45 148 -59 195 -64 225 -4 19 -14 49 -23 65 -25 49 -107 281
-123 345 -4 19 -15 62 -24 95 -42 160 -75 367 -75 470 0 122 36 184 127 220
62 25 245 13 373 -24 102 -29 366 -114 375 -121 6 -4 44 -20 85 -35 41 -15 98
-38 125 -50 28 -13 77 -35 110 -50 69 -31 145 -75 265 -155 183 -121 375 -168
510 -125 39 12 60 54 60 119 0 91 -34 188 -140 411 -32 66 -74 155 -94 197
-40 87 -125 338 -150 443 -10 39 -21 84 -26 100 -36 121 -54 371 -30 416 9 15
22 19 67 19 30 0 74 -5 97 -11 22 -6 68 -17 101 -26 33 -8 119 -33 190 -55
118 -36 170 -53 275 -93 19 -7 62 -23 95 -36 56 -21 98 -38 185 -76 19 -8 94
-44 165 -80 72 -36 146 -71 165 -78 19 -7 67 -25 105 -40 97 -37 272 -46 324
-17 133 73 100 344 -99 807 -17 38 -35 97 -60 193 -12 45 -1 104 28 149 38 60
189 137 362 184 41 11 100 27 130 35 47 13 131 33 325 75 22 5 74 16 115 24
41 8 95 20 120 25 25 6 79 17 120 25 41 8 95 19 120 25 51 11 190 40 235 47
68 12 256 68 335 100 172 70 293 149 365 237 34 42 37 50 36 110 0 58 -5 73
-35 121 -33 51 -105 125 -130 134 -6 2 -18 9 -26 16 -30 26 -159 85 -261 119
-164 55 -404 104 -639 131 -150 17 -246 30 -315 45 -22 5 -67 12 -100 16 -33
3 -89 13 -125 21 -36 8 -94 20 -130 28 -211 43 -484 195 -670 372 -96 91 -127
144 -110 188 12 31 116 84 440 224 367 159 458 206 685 350 135 85 204 139
534 413 7 6 63 46 125 89 61 44 117 84 125 91 28 23 312 186 402 230 173 86
385 172 497 204 255 71 232 65 377 98 134 30 565 143 572 150 2 1 2 342 1 756
l-3 753 -57 -81 c-154 -220 -294 -512 -324 -677 -3 -22 -16 -58 -26 -80 -59
-118 -154 -159 -403 -174 -158 -9 -271 -37 -405 -98 -195 -90 -438 -213 -520
-263 -8 -5 -55 -32 -103 -60 -49 -28 -101 -59 -115 -69 -15 -10 -94 -63 -177
-117 -160 -106 -292 -208 -469 -362 -144 -126 -179 -153 -313 -243 -232 -156
-475 -272 -988 -469 -27 -10 -76 -26 -109 -35 -54 -16 -59 -16 -75 -1 -22 23
-20 181 3 296 20 98 74 263 98 300 9 14 26 43 37 65 12 22 43 61 71 87 126
119 431 351 720 547 69 47 150 102 180 123 30 21 78 54 105 73 628 432 926
706 951 872 9 64 -5 103 -46 128 -31 18 -51 20 -175 19 -362 -4 -882 -68
-1300 -160 -258 -56 -429 -79 -875 -114 -231 -19 -1037 -16 -1185 4 -238 32
-353 73 -420 148 -73 80 -155 294 -155 403 0 102 42 272 131 525 33 96 72 209
86 250 14 41 31 86 38 100 7 14 25 60 39 103 15 44 34 93 41 110 8 18 47 120
86 227 39 107 81 220 93 250 13 30 29 71 36 90 7 19 21 55 32 80 12 25 26 61
33 80 29 81 124 282 198 415 79 144 322 508 389 584 7 8 27 33 43 56 17 23 51
71 77 106 26 35 62 86 80 112 18 26 42 60 54 75 12 15 33 50 49 77 15 28 31
55 35 60 23 28 70 168 76 225 11 118 -28 249 -86 283 -57 34 -146 15 -261 -55
-111 -67 -167 -113 -534 -428 -354 -304 -374 -321 -560 -471 -217 -174 -338
-267 -482 -369 -43 -30 -80 -57 -83 -60 -5 -5 -176 -118 -265 -175 -246 -157
-524 -290 -755 -362 -183 -57 -307 -75 -520 -77 -210 -1 -241 5 -365 67 -66
34 -101 62 -195 156 -103 103 -232 262 -316 390 -80 122 -115 179 -194 316
-61 107 -165 326 -195 413 -13 37 -51 146 -85 242 -34 96 -70 200 -80 232 -37
118 -148 258 -238 301 -68 32 -153 30 -212 -5 -144 -84 -266 -293 -474 -808
-70 -174 -99 -243 -129 -305 -80 -166 -101 -207 -135 -266 -58 -104 -100 -170
-138 -219 -19 -25 -42 -56 -51 -70 -25 -38 -137 -132 -188 -158 -63 -32 -143
-32 -187 -1 -133 94 -462 445 -902 963 -22 27 -61 72 -86 101 -25 28 -67 78
-95 110 -27 32 -55 63 -61 69 -5 6 -43 49 -84 96 -372 427 -724 757 -861 805
-53 19 -58 19 -96 -5z m645 -1359 c73 -48 286 -254 517 -501 344 -368 636
-653 750 -731 28 -19 52 -36 55 -40 8 -8 99 -45 165 -65 50 -16 92 -19 260
-19 l200 0 90 44 c76 37 105 59 185 140 108 109 232 287 329 473 15 29 38 73
52 98 14 25 47 86 74 135 124 233 172 298 233 310 15 3 49 13 76 21 63 18 82
18 132 -5 51 -23 106 -93 208 -264 42 -71 76 -130 76 -131 0 -3 70 -120 114
-191 259 -418 486 -642 830 -820 120 -62 228 -99 351 -121 106 -18 187 -10
349 37 131 38 263 109 598 322 231 147 456 285 553 339 11 6 61 35 111 64 50
29 144 79 210 112 209 104 292 130 322 100 14 -14 17 -166 3 -200 -5 -13 -14
-54 -21 -93 -7 -38 -21 -104 -32 -145 -11 -41 -24 -93 -29 -115 -32 -134 -160
-538 -259 -815 -94 -264 -153 -478 -181 -660 -11 -69 -24 -150 -30 -181 -12
-75 -12 -308 2 -366 35 -153 44 -183 71 -230 66 -119 221 -235 363 -273 44
-12 94 -25 110 -30 17 -5 66 -12 110 -15 44 -3 112 -10 150 -15 39 -5 248 -16
465 -25 217 -8 494 -20 615 -25 121 -6 283 -10 360 -10 234 0 819 -21 843 -31
12 -4 22 -13 22 -18 0 -8 -93 -81 -167 -131 -12 -8 -102 -74 -200 -147 -287
-212 -445 -363 -571 -546 -47 -69 -132 -222 -132 -239 0 -5 -9 -27 -20 -51
-52 -113 -92 -364 -91 -572 2 -290 68 -489 240 -720 84 -112 415 -431 540
-520 254 -180 465 -273 891 -390 52 -14 109 -30 125 -35 17 -5 57 -17 90 -26
106 -30 259 -81 297 -100 41 -19 56 -47 38 -69 -13 -15 -81 -37 -190 -60 -127
-27 -292 -66 -360 -85 -36 -11 -78 -22 -95 -26 -59 -12 -455 -129 -490 -144
-11 -5 -69 -27 -130 -49 -259 -94 -365 -153 -406 -231 -31 -59 -5 -373 42
-493 10 -26 26 -77 34 -112 20 -79 9 -123 -38 -157 -30 -22 -40 -23 -197 -22
-108 1 -196 8 -255 19 -49 9 -133 23 -185 31 -90 13 -189 29 -325 54 -221 41
-504 61 -555 40 -16 -7 -35 -22 -43 -34 -20 -31 -40 -161 -32 -210 3 -22 11
-88 16 -146 10 -119 35 -321 48 -395 49 -281 60 -390 40 -427 -22 -41 -148
-14 -559 118 -475 152 -876 151 -1029 -5 -46 -46 -60 -78 -92 -203 -12 -49 -7
-195 10 -318 24 -171 41 -270 54 -320 8 -30 22 -93 32 -140 9 -47 24 -109 31
-137 8 -29 28 -103 44 -165 16 -62 41 -156 56 -208 14 -52 39 -142 55 -200 15
-58 38 -136 49 -175 11 -38 27 -97 35 -130 8 -33 27 -109 44 -170 32 -115 40
-212 19 -233 -7 -7 -38 -12 -70 -12 -48 0 -70 7 -141 43 -82 43 -216 131 -291
191 -311 250 -550 485 -878 867 -319 371 -828 755 -1091 822 -78 20 -166 1
-215 -46 -88 -86 -137 -258 -167 -587 -21 -234 -34 -357 -44 -420 -5 -30 -14
-91 -20 -135 -15 -104 -31 -162 -53 -182 -16 -14 -20 -14 -42 1 -36 23 -108
137 -176 279 -117 241 -346 543 -564 740 -156 142 -233 192 -342 222 -58 16
-66 16 -120 0 -50 -14 -70 -27 -125 -83 -36 -37 -82 -96 -103 -132 -20 -36
-41 -72 -46 -80 -13 -23 -84 -192 -125 -300 -20 -52 -43 -108 -49 -125 -7 -16
-25 -64 -39 -105 -14 -41 -30 -88 -36 -105 -28 -77 -132 -401 -151 -471 -12
-42 -26 -85 -30 -93 -4 -9 -23 -70 -41 -136 -17 -66 -43 -158 -56 -205 -13
-47 -34 -132 -48 -190 -26 -109 -41 -167 -56 -210 -4 -14 -11 -45 -14 -70 -4
-25 -18 -90 -32 -145 -13 -55 -30 -131 -38 -170 -29 -155 -101 -431 -118 -453
-17 -22 -35 6 -42 66 -8 84 -25 209 -36 277 -5 33 -14 110 -19 170 -27 289
-41 427 -49 500 -5 44 -17 161 -26 260 -17 190 -30 324 -39 390 -3 22 -12 117
-21 210 -9 94 -20 199 -26 235 -5 36 -18 130 -30 210 -28 201 -34 233 -62 331
-37 127 -74 187 -130 210 -56 24 -241 14 -382 -20 -22 -5 -89 -20 -150 -34
-60 -13 -117 -26 -125 -29 -8 -3 -33 -10 -55 -16 -22 -6 -96 -27 -165 -46
-159 -45 -350 -94 -415 -106 -27 -5 -70 -14 -95 -20 -105 -24 -322 -50 -425
-50 -128 0 -199 17 -236 56 -22 24 -24 32 -23 130 1 57 6 123 12 147 6 23 18
83 27 132 9 50 23 119 32 155 53 222 104 491 119 625 3 28 10 68 15 90 8 33 6
56 -11 120 -26 98 -46 131 -117 195 -66 58 -108 74 -253 96 -91 13 -224 15
-995 12 -656 -2 -899 0 -925 9 -19 6 -52 14 -73 18 -21 3 -47 15 -58 26 -25
25 -25 84 -1 124 21 34 119 136 202 209 83 74 191 168 230 200 52 43 150 128
174 151 12 11 68 61 126 110 422 361 562 507 595 620 34 118 53 357 36 459
-46 285 -92 437 -195 650 -104 213 -223 373 -379 513 -66 59 -239 185 -333
243 -32 19 -73 46 -93 59 -50 34 -223 132 -359 202 -182 96 -361 197 -452 258
-133 88 -123 121 65 211 121 58 238 106 445 182 30 11 66 24 80 30 14 5 45 17
70 25 175 58 311 163 343 265 21 69 21 116 -1 198 -40 145 -141 299 -382 581
-220 258 -261 317 -237 337 7 6 49 18 92 26 44 9 103 20 130 26 28 6 95 17
150 25 55 9 116 18 135 21 70 11 327 75 400 100 162 56 209 179 164 423 -16
85 -71 267 -98 326 -8 17 -23 53 -34 80 -23 58 -84 195 -94 211 -4 5 -28 50
-53 100 -26 49 -62 114 -81 145 -19 31 -34 60 -34 64 0 4 -8 19 -19 33 -10 15
-29 47 -43 72 -14 25 -54 97 -90 160 -36 63 -76 135 -90 160 -14 25 -44 77
-67 117 -22 39 -50 89 -62 110 -25 44 -309 565 -330 604 -30 57 -250 497 -274
548 -28 61 -33 126 -11 134 35 14 118 -31 244 -132 46 -36 98 -77 115 -91 18
-13 59 -47 92 -75 55 -46 139 -115 469 -379 667 -533 1009 -764 1331 -898 130
-54 419 -150 553 -183 34 -8 88 -22 121 -30 95 -23 259 -45 341 -45 177 0 415
84 560 198 144 113 226 248 294 487 36 127 51 239 86 660 28 333 39 414 67
512 22 76 43 80 131 24z m127 -11085 c45 -19 54 -38 86 -171 17 -75 50 -333
68 -531 5 -61 12 -131 15 -155 4 -24 11 -98 17 -164 6 -66 14 -149 19 -185 4
-36 12 -114 19 -175 6 -60 16 -146 21 -190 6 -44 17 -136 25 -205 8 -69 17
-145 20 -170 4 -25 13 -103 20 -175 8 -71 19 -157 24 -190 5 -33 16 -121 25
-195 24 -195 27 -216 75 -555 30 -214 43 -259 84 -283 41 -25 89 -34 137 -26
69 11 99 81 135 314 9 58 20 125 25 150 5 25 14 83 21 130 12 90 21 144 39
225 6 28 15 79 20 115 23 153 72 347 103 403 34 61 67 80 141 85 141 9 203
-44 239 -203 29 -127 72 -236 159 -409 16 -32 45 -105 64 -163 47 -144 47
-217 -2 -362 -19 -58 -46 -128 -59 -156 -13 -27 -42 -90 -65 -140 -52 -111
-158 -305 -222 -405 -26 -41 -55 -88 -64 -105 -33 -60 -155 -214 -205 -259
-71 -64 -88 -62 -189 23 -206 172 -349 379 -487 706 -69 165 -164 448 -179
535 -3 19 -14 64 -24 100 -32 115 -59 275 -80 470 -17 158 -42 319 -73 475
-16 79 -76 261 -116 349 -34 78 -164 336 -204 407 -18 31 -58 103 -90 160 -31
57 -76 136 -99 174 -87 148 -108 187 -108 202 0 17 18 42 149 208 154 196 267
293 387 334 71 24 85 25 129 7z"/>
<path d="M7365 14845 c-19 -31 -35 -58 -35 -60 0 -3 -14 -36 -31 -73 -17 -37
-55 -134 -84 -217 -97 -276 -141 -391 -184 -474 -10 -20 -38 -79 -62 -131 -79
-171 -219 -402 -323 -534 -57 -72 -170 -188 -227 -231 -90 -69 -270 -174 -308
-181 -87 -15 -214 -71 -225 -99 -17 -47 14 -134 119 -329 121 -224 202 -354
292 -468 65 -82 80 -92 116 -73 54 28 180 172 282 321 141 207 293 377 346
389 93 21 263 -155 432 -446 176 -304 267 -547 294 -785 14 -118 21 -148 39
-171 l22 -28 124 2 c193 2 472 30 545 54 22 7 33 17 33 30 0 68 -305 673 -508
1009 -139 229 -206 327 -312 450 -73 86 -160 215 -160 239 0 30 41 106 128
241 155 238 192 312 192 380 0 49 -32 124 -91 212 -32 48 -68 107 -80 130 -27
53 -97 248 -109 303 -5 22 -14 58 -20 80 -6 22 -20 87 -32 145 -23 118 -81
313 -104 348 -8 12 -19 22 -24 22 -5 0 -25 -25 -45 -55z"/>
<path d="M10735 14588 c-159 -13 -174 -29 -141 -144 27 -91 68 -249 76 -294 5
-25 14 -63 19 -85 53 -211 76 -485 47 -565 -32 -86 -99 -126 -139 -82 -30 33
-53 116 -67 242 -21 194 -51 276 -109 300 -40 16 -78 6 -148 -39 -55 -35 -176
-158 -240 -243 -15 -21 -81 -107 -147 -193 -65 -86 -115 -159 -111 -163 4 -4
67 -70 140 -147 200 -211 224 -236 409 -425 241 -247 329 -343 455 -495 35
-42 41 -57 41 -95 0 -56 -35 -132 -82 -183 -48 -50 -91 -51 -174 -2 -75 45
-133 107 -254 270 -135 181 -208 245 -278 245 -58 0 -98 -55 -132 -179 -47
-172 -74 -249 -127 -358 -53 -111 -57 -122 -57 -195 -1 -72 1 -79 29 -108 17
-17 68 -50 115 -72 165 -79 289 -181 431 -353 188 -229 330 -324 569 -382 101
-25 359 -29 430 -7 75 23 120 47 152 81 46 48 117 216 158 373 6 25 15 59 20
75 15 48 22 293 12 380 -5 44 -17 105 -25 135 -64 229 -110 919 -122 1830 -3
223 -8 503 -11 622 l-6 217 -32 11 c-42 15 -355 40 -486 38 -58 0 -154 -5
-215 -10z"/>
<path d="M10010 14549 c-146 -81 -268 -142 -345 -169 -85 -31 -98 -33 -225
-33 -81 0 -167 6 -215 15 -121 24 -197 36 -340 53 -71 8 -158 20 -191 25 -86
14 -133 12 -206 -6 -84 -22 -130 -46 -209 -111 -134 -111 -171 -190 -171 -372
-1 -175 37 -263 174 -401 60 -62 205 -181 320 -263 211 -151 287 -228 295
-301 7 -60 -15 -99 -73 -126 -40 -20 -55 -22 -125 -16 -44 4 -89 10 -102 15
-12 5 -49 17 -82 26 -33 10 -78 26 -100 35 -51 23 -145 62 -260 107 -163 64
-253 74 -292 31 -28 -31 -24 -130 6 -193 68 -137 247 -340 546 -617 52 -48
110 -96 271 -223 73 -57 259 -177 329 -210 103 -50 162 -60 228 -41 149 43
357 246 455 442 47 96 82 235 82 327 0 73 -38 235 -70 298 -72 142 -155 217
-420 384 -326 205 -470 341 -470 443 0 115 145 157 511 145 205 -7 257 2 339
55 69 45 242 219 318 320 64 86 111 182 112 226 0 16 -4 43 -9 60 -5 17 -13
44 -18 60 -10 37 -20 40 -63 15z"/>
<path d="M5845 14188 c-19 -29 -40 -71 -46 -92 -32 -117 -142 -304 -275 -466
-51 -61 -133 -139 -202 -189 -37 -28 -78 -58 -92 -69 -20 -15 -143 -91 -310
-193 -8 -5 -37 -21 -65 -35 -27 -15 -61 -34 -75 -44 -36 -25 -344 -182 -495
-252 -152 -71 -345 -145 -407 -156 -77 -15 -158 -60 -158 -89 0 -23 69 -91
166 -164 171 -128 209 -192 225 -376 12 -142 36 -269 57 -301 22 -34 87 -64
130 -60 33 3 39 8 59 48 26 55 95 120 230 220 177 130 269 180 333 180 33 0
43 -6 70 -39 66 -84 149 -286 185 -451 8 -36 20 -92 28 -125 29 -122 37 -210
37 -388 0 -213 -11 -269 -62 -313 -32 -26 -35 -27 -133 -21 -55 2 -111 9 -125
15 -14 5 -43 15 -65 21 -97 25 -380 111 -557 168 -42 13 -102 27 -133 30 -54
6 -55 6 -55 -21 0 -32 29 -93 76 -159 19 -26 34 -49 34 -52 0 -3 15 -25 33
-49 17 -24 50 -69 72 -101 49 -70 212 -295 254 -350 33 -42 155 -203 168 -220
5 -6 22 -28 38 -50 206 -270 431 -535 456 -535 15 0 106 110 174 209 39 57 77
113 85 125 23 35 174 207 227 261 358 360 841 678 1259 829 78 28 284 81 357
91 39 5 47 4 47 -9 0 -9 -10 -24 -21 -34 -12 -9 -29 -24 -38 -33 -9 -9 -43
-37 -76 -64 -33 -26 -62 -51 -65 -55 -3 -3 -93 -71 -200 -151 -185 -137 -231
-171 -269 -194 -9 -6 -50 -35 -91 -66 -41 -30 -129 -91 -195 -135 -66 -43
-122 -82 -125 -85 -8 -9 -269 -172 -349 -219 -101 -58 -135 -82 -213 -148 -62
-52 -68 -60 -68 -95 0 -47 92 -237 194 -402 38 -60 87 -139 109 -175 47 -75
85 -146 173 -320 90 -179 136 -293 199 -490 53 -167 64 -206 80 -295 9 -49 21
-106 25 -125 32 -136 52 -513 31 -596 -16 -64 -47 -131 -83 -179 -172 -232
-227 -328 -228 -392 0 -38 54 -88 121 -113 53 -19 80 -22 208 -21 80 0 173 5
206 10 33 6 119 19 190 30 187 29 625 125 690 151 11 4 47 16 80 25 139 39
383 122 461 156 22 10 63 27 91 38 164 64 480 229 653 339 373 239 622 533
683 807 49 224 49 220 0 480 -42 222 -176 374 -383 431 -194 53 -304 127 -404
272 -88 128 -108 202 -108 407 1 146 8 233 33 400 22 144 30 248 27 357 l-3
117 -65 66 c-87 88 -173 137 -320 183 -56 17 -298 57 -410 67 -217 20 -380 58
-413 97 -14 17 -17 32 -12 73 21 161 -187 681 -374 935 -97 133 -200 220 -260
220 -30 0 -56 -34 -74 -98 -29 -103 -36 -159 -43 -343 -6 -158 -10 -185 -26
-201 -17 -17 -41 -18 -335 -18 -175 0 -324 4 -331 8 -14 9 -84 199 -182 492
-30 89 -71 205 -140 400 -23 63 -46 131 -51 150 -6 19 -20 55 -31 80 -11 25
-23 61 -25 80 -5 40 -18 32 217 124 230 90 347 142 443 199 39 24 47 34 47 58
0 31 -22 110 -45 164 -7 17 -32 80 -55 140 -24 61 -53 134 -66 163 -13 29 -24
55 -24 58 0 19 -207 451 -228 477 -24 27 -39 20 -77 -35z m1474 -4112 c40 -8
81 -21 89 -30 55 -55 -171 -236 -292 -236 -79 0 -142 47 -153 113 -20 124 142
194 356 153z m636 -1331 c74 -19 119 -48 154 -98 35 -53 43 -81 48 -189 7
-146 -37 -233 -144 -281 -144 -63 -366 -34 -455 60 -78 82 -74 225 8 333 70
92 145 142 254 171 82 22 70 21 135 4z"/>
<path d="M14902 12315 c-18 -8 -66 -40 -108 -72 -42 -32 -108 -83 -148 -113
-40 -30 -113 -75 -162 -99 -105 -53 -104 -53 -216 -85 -109 -33 -184 -87 -194
-142 -17 -92 11 -156 177 -405 137 -205 174 -290 134 -305 -21 -8 -77 29 -127
85 -74 82 -142 102 -193 58 -31 -26 -44 -78 -45 -182 -1 -120 -43 -238 -101
-284 -21 -17 -55 -28 -110 -37 -81 -13 -133 -35 -152 -66 -19 -30 49 -123 208
-283 83 -83 168 -166 190 -186 122 -105 282 -215 406 -277 147 -74 270 -205
351 -372 46 -96 60 -153 65 -271 4 -79 1 -98 -12 -109 -23 -19 -46 -5 -145 85
-83 76 -145 114 -185 115 -11 0 -44 -11 -73 -25 -67 -31 -308 -273 -439 -441
-143 -183 -155 -227 -68 -253 35 -10 59 -11 107 -2 174 29 211 33 303 30 88
-4 108 -8 165 -36 36 -17 88 -49 115 -72 95 -76 170 -127 215 -145 25 -10 53
-22 62 -27 23 -12 153 -12 192 0 17 6 67 17 111 27 162 33 217 54 256 94 73
76 116 210 135 418 11 115 -28 323 -113 607 -25 83 -51 170 -58 195 -7 25 -24
79 -39 120 -15 41 -31 91 -36 110 -10 38 -84 251 -92 266 -26 44 -117 389
-138 519 -6 39 -13 83 -15 99 -3 16 -10 241 -15 500 -11 482 -30 781 -56 872
-27 95 -75 122 -152 89z"/>
<path d="M13688 11815 c-118 -95 -149 -116 -223 -153 -83 -42 -219 -90 -315
-112 -264 -62 -364 -98 -484 -175 -139 -89 -237 -212 -282 -355 -23 -75 -24
-263 0 -342 43 -148 150 -233 377 -303 63 -19 130 -40 149 -46 76 -24 220
-102 274 -149 77 -64 96 -97 96 -165 0 -49 -3 -56 -27 -69 -44 -22 -193 -36
-393 -36 -287 0 -420 -36 -420 -113 0 -24 11 -41 47 -74 45 -42 178 -124 225
-139 31 -9 149 -69 223 -112 115 -69 248 -187 276 -247 9 -18 25 -43 111 -172
45 -67 121 -139 155 -146 55 -11 118 16 253 109 250 171 442 342 454 405 17
94 -62 223 -328 535 -60 70 -117 137 -127 148 -55 67 -144 172 -149 176 -3 3
-27 32 -55 65 -27 33 -52 62 -55 65 -11 10 -158 197 -198 252 -52 70 -92 157
-92 197 0 83 147 161 307 161 43 1 120 7 171 14 126 18 133 25 143 153 5 54
14 141 20 193 14 109 16 331 4 375 -11 42 -53 95 -75 95 -10 0 -38 -16 -62
-35z"/>
<path d="M9263 11571 c-80 -23 -151 -69 -219 -145 -107 -118 -164 -294 -164
-507 0 -324 162 -483 409 -399 86 29 154 75 270 184 114 108 154 139 200 155
29 9 38 9 50 -4 37 -37 -49 -138 -508 -595 -191 -190 -366 -372 -391 -405 -24
-33 -49 -64 -54 -70 -19 -18 -47 -86 -53 -130 -11 -81 41 -142 192 -225 76
-43 84 -45 160 -45 77 0 85 3 220 64 240 109 328 99 422 -48 44 -67 74 -144
143 -356 29 -88 56 -169 61 -180 12 -27 68 -245 81 -315 14 -78 5 -158 -25
-216 -14 -27 -60 -83 -102 -124 -42 -41 -97 -103 -122 -138 -41 -57 -45 -68
-46 -123 0 -56 2 -62 39 -100 44 -46 97 -78 169 -105 156 -57 257 -135 368
-284 134 -179 243 -263 357 -277 97 -11 147 22 174 119 30 109 34 130 46 258
15 166 28 274 41 335 5 28 14 77 20 110 21 130 69 236 154 339 72 88 95 134
95 189 0 39 -5 49 -39 80 -25 23 -54 38 -78 42 -21 3 -62 10 -92 15 -30 6 -83
10 -118 10 -145 0 -192 59 -359 447 -42 98 -82 192 -89 208 -43 98 -97 232
-126 315 -26 74 -33 111 -34 171 0 69 3 82 44 164 33 66 61 106 115 160 74 75
134 110 301 175 182 72 202 160 65 290 -126 120 -432 304 -656 394 l-89 37
-145 -2 c-195 -3 -190 -7 -247 179 -39 132 -82 210 -147 270 -53 49 -91 69
-163 88 -62 16 -51 17 -130 -5z"/>
<path d="M11903 11505 c-11 -8 -28 -34 -38 -57 -9 -24 -23 -56 -30 -73 -17
-36 -49 -140 -79 -255 -13 -47 -30 -101 -39 -120 -9 -19 -23 -53 -32 -74 -54
-136 -233 -331 -411 -449 -55 -37 -104 -67 -108 -67 -5 0 -20 -9 -35 -19 -27
-19 -148 -81 -403 -205 -76 -37 -138 -71 -138 -75 0 -4 42 -92 94 -194 131
-260 214 -483 247 -667 6 -36 15 -74 19 -85 5 -11 16 -46 26 -79 17 -57 56
-116 76 -116 39 0 116 97 187 236 61 120 89 207 97 300 7 84 28 139 59 150 35
14 87 -8 134 -55 48 -48 135 -184 160 -251 7 -19 21 -53 31 -75 10 -22 25 -69
34 -105 10 -36 21 -81 27 -101 18 -71 8 -150 -34 -264 -14 -39 -91 -190 -107
-210 -19 -25 -70 -160 -70 -188 0 -30 29 -76 73 -118 40 -37 95 -54 267 -81
82 -14 495 -16 600 -5 145 17 330 56 380 81 58 29 116 99 140 170 43 122 45
295 5 380 -20 42 -79 93 -145 126 -47 23 -206 127 -251 164 -14 12 -43 35 -65
51 -84 66 -273 237 -349 316 -153 161 -189 221 -189 314 1 117 98 215 214 215
30 0 68 8 95 21 44 21 45 22 45 69 0 56 -38 162 -115 325 -49 104 -97 238
-125 350 -6 28 -14 111 -16 185 -5 136 -9 170 -40 314 -38 176 -120 271 -191
221z"/>
<path d="M19920 6210 c-25 -5 -67 -9 -94 -9 -134 -2 -361 -69 -534 -157 -181
-92 -313 -187 -512 -364 -47 -42 -105 -92 -130 -111 -25 -18 -49 -40 -55 -46
-5 -7 -24 -23 -41 -35 -17 -13 -77 -58 -132 -100 -202 -155 -477 -336 -686
-450 -114 -62 -433 -218 -446 -218 -5 0 -26 -7 -47 -16 -56 -25 -64 -28 -243
-87 -225 -76 -324 -115 -430 -171 -270 -144 -594 -354 -890 -579 -282 -214
-630 -530 -1075 -972 -416 -414 -588 -603 -804 -886 -11 -15 -43 -84 -72 -155
-72 -183 -122 -281 -173 -343 -50 -60 -158 -135 -219 -152 -22 -6 -47 -15 -56
-20 -14 -8 -192 -59 -331 -95 -234 -61 -437 -175 -712 -399 -60 -49 -120 -97
-132 -105 -12 -8 -31 -24 -43 -35 -11 -11 -55 -49 -98 -85 -42 -36 -147 -126
-234 -200 -86 -74 -214 -184 -285 -245 -71 -60 -146 -125 -165 -142 l-36 -32
395 0 395 0 115 100 c250 217 515 402 725 506 171 85 245 114 610 238 77 27
144 52 149 57 6 4 16 8 24 8 21 0 189 80 252 119 80 50 144 106 192 169 52 66
50 63 165 293 129 257 132 262 276 479 117 176 192 266 357 429 84 82 406 369
496 441 285 228 482 382 544 425 15 11 75 54 132 95 213 155 399 270 495 306
58 22 63 22 79 7 39 -39 -15 -237 -109 -398 -16 -27 -33 -59 -38 -70 -5 -11
-26 -46 -47 -78 -20 -31 -75 -117 -121 -190 -46 -72 -94 -148 -106 -167 -63
-99 -192 -355 -232 -460 -44 -116 -61 -164 -83 -235 -20 -65 -29 -110 -66
-304 -7 -40 -19 -150 -26 -245 -38 -536 6 -642 256 -602 78 13 141 31 306 86
78 27 325 86 476 114 71 14 163 32 204 40 41 8 125 22 185 31 61 9 133 20 160
25 28 5 102 19 165 30 404 69 613 140 701 236 84 93 124 263 139 589 8 179 27
310 53 360 5 11 83 92 171 180 154 152 184 188 292 350 136 201 282 331 497
441 211 108 278 167 298 263 16 80 6 321 -16 386 -30 86 -74 171 -115 223 -46
57 -110 186 -110 220 0 14 14 54 32 91 27 54 61 94 190 224 87 86 163 157 168
157 6 0 27 -8 48 -19 20 -10 47 -22 60 -25 l22 -7 -2 648 c-3 567 -5 648 -18
649 -8 1 -35 -2 -60 -6z"/>
</g>
</svg>
