<svg version="1.1" viewBox="0.0 0.0 996.6089238845144 277.51181102362204" fill="none" stroke="none" stroke-linecap="square" stroke-miterlimit="10" xmlns:xlink="http://www.w3.org/1999/xlink" xmlns="http://www.w3.org/2000/svg"><clipPath id="p.0"><path d="m0 0l996.60895 0l0 277.5118l-996.60895 0l0 -277.5118z" clip-rule="nonzero"/></clipPath><g clip-path="url(#p.0)"><path fill="#000000" fill-opacity="0.0" d="m0 0l996.60895 0l0 277.5118l-996.60895 0z" fill-rule="evenodd"/><path fill="#000000" fill-opacity="0.0" d="m245.8937 4.2834644l730.8976 0l0 268.94485l-730.8976 0z" fill-rule="evenodd"/><path fill="#000000" d="m397.25308 70.25278l-49.484375 135.70312l-39.203125 0l-49.484375 -135.70312l36.734375 0l32.8125 95.328125l32.796875 -95.328125l35.828125 0zm117.65347 135.70312l-98.15622 0l0 -135.70312l98.15622 0l0 26.25l-63.34372 0l0 23.421875l58.796875 0l0 26.25l-58.796875 0l0 33.53125l63.34372 0l0 26.25zm152.75592 0l-33.71875 0l-57.609375 -93.140625l0 93.140625l-32.078125 0l0 -135.70312l41.84375 0l49.484375 77.734375l0 -77.734375l32.078125 0l0 135.70312zm153.49121 -49.125q0 25.15625 -15.3125 38.5625q-15.3125 13.390625 -45.125 13.390625q-29.796875 0 -45.0625 -13.390625q-15.265625 -13.40625 -15.265625 -38.46875l0 -86.671875l35.171875 0l0 84.671875q0 14.125 5.921875 21.046875q5.9375 6.921875 19.234375 6.921875q13.125 0 19.1875 -6.640625q6.0625 -6.65625 6.0625 -21.328125l0 -84.671875l35.1875 0l0 86.578125zm130.86389 49.125l-98.15625 0l0 -135.70312l98.15625 0l0 26.25l-63.34375 0l0 23.421875l58.796875 0l0 26.25l-58.796875 0l0 33.53125l63.34375 0l0 26.25z" fill-rule="nonzero"/><path fill="#000000" d="m188.01836 49.56168l0 0c31.962936 31.962933 31.962936 83.785095 0 115.74803q-35.58731 35.58731 -57.87401 84.475235q-22.286705 -48.887924 -57.874016 -84.475235l0 0c-31.96294 -31.962936 -31.96294 -83.785095 0 -115.74803l0 0c31.962936 -31.962936 83.78509 -31.962936 115.748024 0z" fill-rule="evenodd"/><path stroke="#ffffff" stroke-width="16.0" stroke-linejoin="round" stroke-linecap="butt" d="m188.01836 49.56168l0 0c31.962936 31.962933 31.962936 83.785095 0 115.74803q-35.58731 35.58731 -57.87401 84.475235q-22.286705 -48.887924 -57.874016 -84.475235l0 0c-31.96294 -31.962936 -31.96294 -83.785095 0 -115.74803l0 0c31.962936 -31.962936 83.78509 -31.962936 115.748024 0z" fill-rule="evenodd"/><path fill="#ffffff" d="m93.73491 107.43569l0 0c0 -20.108383 16.301064 -36.409447 36.409454 -36.409447l0 0c9.656387 0 18.917267 3.8359833 25.745361 10.664085c6.8280945 6.8280945 10.664078 16.088982 10.664078 25.745361l0 0c0 20.10839 -16.301056 36.409447 -36.40944 36.409447l0 0c-20.10839 0 -36.409454 -16.301056 -36.409454 -36.409447z" fill-rule="evenodd"/><path stroke="#000000" stroke-width="1.0" stroke-linejoin="round" stroke-linecap="butt" d="m93.73491 107.43569l0 0c0 -20.108383 16.301064 -36.409447 36.409454 -36.409447l0 0c9.656387 0 18.917267 3.8359833 25.745361 10.664085c6.8280945 6.8280945 10.664078 16.088982 10.664078 25.745361l0 0c0 20.10839 -16.301056 36.409447 -36.40944 36.409447l0 0c-20.10839 0 -36.409454 -16.301056 -36.409454 -36.409447z" fill-rule="evenodd"/></g></svg>